<?xml version="1.0" encoding="UTF-8" standalone="no"?>
<svg xmlns="http://www.w3.org/2000/svg" xmlns:xlink="http://www.w3.org/1999/xlink" style="isolation:isolate" viewBox="74.211 35.499 477.98 369.018" width="477.98pt" height="369.018pt">
  <defs>
    <clipPath id="_clipPath_BsfEFSn8CxI32nGiL78ImABSMl0xAzTK">
      <rect x="74.211" y="35.499" width="477.98" height="369.018"></rect>
    </clipPath>
  </defs>
  <g clip-path="url(#_clipPath_BsfEFSn8CxI32nGiL78ImABSMl0xAzTK)">
    <path d=" M 291.102 249.82 C 327.376 257.367 336.78 285.891 312.108 313.533 C 287.435 341.173 238.028 357.461 201.754 349.915 C 165.48 342.367 156.076 313.842 180.749 286.202 C 205.422 258.561 254.829 242.272 291.102 249.82 L 291.102 249.82 Z M 313.883 195.216 L 297.407 213.675 C 281.81 212.946 265.106 214.335 248.198 217.768 L 242.732 201.189 L 190.712 218.339 L 196.181 234.925 C 180.513 242.205 166.219 251.012 154.072 260.871 L 129.96 255.854 L 100.177 289.219 L 124.401 294.259 C 117.866 305.28 114.38 316.337 114.13 326.835 L 85.414 336.303 L 95.315 366.336 L 124.042 356.865 C 130.448 365.185 139.799 372.032 151.587 377.033 L 135.187 395.407 L 178.972 404.518 L 195.45 386.059 C 211.046 386.788 227.75 385.399 244.658 381.966 L 250.124 398.545 L 302.144 381.395 L 296.676 364.809 C 312.344 357.53 326.637 348.722 338.783 338.863 L 362.896 343.88 L 392.679 310.515 L 368.455 305.474 C 374.99 294.455 378.477 283.396 378.725 272.899 L 407.443 263.431 L 397.541 233.398 L 368.813 242.869 C 362.408 234.549 353.058 227.703 341.269 222.7 L 357.67 204.326 L 313.883 195.216 Z " fill="rgb(191,247,71)"></path>
    <path d=" M 470.908 101.228 C 496.251 106.501 502.822 126.431 485.584 145.742 C 468.345 165.054 433.825 176.435 408.482 171.162 C 383.139 165.889 376.568 145.959 393.806 126.648 C 411.044 107.336 445.565 95.955 470.908 101.228 Z M 486.824 63.078 L 475.311 75.976 C 464.415 75.466 452.744 76.437 440.932 78.835 L 437.113 67.251 L 400.767 79.234 L 404.588 90.821 C 393.642 95.907 383.656 102.062 375.168 108.949 L 358.322 105.444 L 337.513 128.756 L 354.438 132.277 C 349.872 139.976 347.436 147.702 347.262 155.037 L 327.199 161.651 L 334.117 182.635 L 354.187 176.018 C 358.662 181.831 365.196 186.614 373.432 190.109 L 361.973 202.946 L 392.566 209.312 L 404.077 196.415 C 414.975 196.924 426.645 195.954 438.458 193.555 L 442.277 205.139 L 478.622 193.156 L 474.802 181.569 C 485.748 176.483 495.735 170.328 504.221 163.441 L 521.068 166.946 L 541.876 143.635 L 524.952 140.114 C 529.518 132.414 531.953 124.688 532.127 117.354 L 552.191 110.739 L 545.273 89.755 L 525.202 96.372 C 520.727 90.559 514.194 85.776 505.957 82.281 L 517.416 69.444 L 486.824 63.078 Z " fill="rgb(121,247,71)"></path>
    <path d=" M 425.912 91.717 C 440.133 87.162 454.767 86.002 466.706 88.486 C 492.049 93.759 498.62 113.689 481.382 133 C 464.144 152.312 429.624 163.692 404.281 158.42 C 378.937 153.147 372.366 133.217 389.605 113.905 C 398.041 104.455 411.138 96.452 425.912 91.717 Z M 396.566 66.492 L 400.386 78.08 C 389.44 83.166 379.454 89.32 370.967 96.207 L 354.121 92.702 L 352.313 94.728 L 347.657 91.481 L 328.419 101.175 L 333.311 116.014 L 350.235 119.536 C 345.669 127.234 343.234 134.961 343.06 142.296 L 322.997 148.91 L 329.915 169.893 L 349.985 163.276 C 354.461 169.089 360.993 173.874 369.231 177.369 L 368.177 178.548 L 352.878 175.366 L 357.77 190.205 L 388.365 196.569 L 399.875 183.673 C 410.773 184.182 422.443 183.212 434.256 180.814 L 438.075 192.398 L 474.421 180.415 L 470.6 168.828 C 481.546 163.742 491.533 157.587 500.019 150.7 L 516.867 154.204 L 537.675 130.892 L 532.783 116.054 L 522.379 127.71 L 520.751 127.371 C 525.316 119.672 527.751 111.946 527.925 104.612 L 547.989 97.997 L 541.071 77.014 L 521.001 83.631 C 516.526 77.818 509.993 73.033 501.756 69.539 L 513.215 56.701 L 508.323 41.863 L 495.886 53.095 L 482.623 50.336 L 471.109 63.234 C 460.213 62.724 448.542 63.696 436.73 66.093 L 432.911 54.51 L 396.566 66.492 Z " fill="rgb(0,0,0)"></path>
    <mask id="_mask_XqR4XD6oSA4B6p44KwKkO34IaKRosAFt">
      <path d=" M 461.814 73.649 C 487.158 78.922 493.728 98.851 476.49 118.163 C 459.252 137.474 424.732 148.855 399.388 143.582 C 374.045 138.31 367.474 118.38 384.712 99.068 C 401.951 79.756 436.471 68.376 461.814 73.649 L 461.814 73.649 Z M 477.731 35.499 L 466.218 48.395 C 455.322 47.886 443.65 48.857 431.838 51.255 L 428.019 39.671 L 391.674 51.654 L 395.495 63.242 C 384.548 68.328 374.562 74.482 366.076 81.37 L 349.228 77.865 L 328.42 101.176 L 345.344 104.697 C 340.778 112.397 338.342 120.123 338.168 127.457 L 318.105 134.072 L 325.023 155.056 L 345.095 148.439 C 349.569 154.251 356.102 159.035 364.338 162.53 L 352.88 175.367 L 383.472 181.732 L 394.984 168.835 C 405.881 169.345 417.551 168.374 429.365 165.975 L 433.184 177.559 L 469.529 165.577 L 465.708 153.988 C 476.654 148.903 486.641 142.749 495.128 135.861 L 511.974 139.367 L 532.783 116.055 L 515.858 112.534 C 520.424 104.834 522.859 97.108 523.034 89.774 L 543.097 83.159 L 536.179 62.175 L 516.109 68.792 C 511.634 62.979 505.1 58.196 496.864 54.702 L 508.323 41.864 L 477.731 35.499 Z " fill="white" stroke="none"></path>
    </mask>
    <path d=" M 461.814 73.649 C 487.158 78.922 493.728 98.851 476.49 118.163 C 459.252 137.474 424.732 148.855 399.388 143.582 C 374.045 138.31 367.474 118.38 384.712 99.068 C 401.951 79.756 436.471 68.376 461.814 73.649 L 461.814 73.649 Z M 477.731 35.499 L 466.218 48.395 C 455.322 47.886 443.65 48.857 431.838 51.255 L 428.019 39.671 L 391.674 51.654 L 395.495 63.242 C 384.548 68.328 374.562 74.482 366.076 81.37 L 349.228 77.865 L 328.42 101.176 L 345.344 104.697 C 340.778 112.397 338.342 120.123 338.168 127.457 L 318.105 134.072 L 325.023 155.056 L 345.095 148.439 C 349.569 154.251 356.102 159.035 364.338 162.53 L 352.88 175.367 L 383.472 181.732 L 394.984 168.835 C 405.881 169.345 417.551 168.374 429.365 165.975 L 433.184 177.559 L 469.529 165.577 L 465.708 153.988 C 476.654 148.903 486.641 142.749 495.128 135.861 L 511.974 139.367 L 532.783 116.055 L 515.858 112.534 C 520.424 104.834 522.859 97.108 523.034 89.774 L 543.097 83.159 L 536.179 62.175 L 516.109 68.792 C 511.634 62.979 505.1 58.196 496.864 54.702 L 508.323 41.864 L 477.731 35.499 Z " fill="rgb(253,253,225)"></path>
    <path d=" M 461.814 73.649 C 487.158 78.922 493.728 98.851 476.49 118.163 C 459.252 137.474 424.732 148.855 399.388 143.582 C 374.045 138.31 367.474 118.38 384.712 99.068 C 401.951 79.756 436.471 68.376 461.814 73.649 L 461.814 73.649 Z M 477.731 35.499 L 466.218 48.395 C 455.322 47.886 443.65 48.857 431.838 51.255 L 428.019 39.671 L 391.674 51.654 L 395.495 63.242 C 384.548 68.328 374.562 74.482 366.076 81.37 L 349.228 77.865 L 328.42 101.176 L 345.344 104.697 C 340.778 112.397 338.342 120.123 338.168 127.457 L 318.105 134.072 L 325.023 155.056 L 345.095 148.439 C 349.569 154.251 356.102 159.035 364.338 162.53 L 352.88 175.367 L 383.472 181.732 L 394.984 168.835 C 405.881 169.345 417.551 168.374 429.365 165.975 L 433.184 177.559 L 469.529 165.577 L 465.708 153.988 C 476.654 148.903 486.641 142.749 495.128 135.861 L 511.974 139.367 L 532.783 116.055 L 515.858 112.534 C 520.424 104.834 522.859 97.108 523.034 89.774 L 543.097 83.159 L 536.179 62.175 L 516.109 68.792 C 511.634 62.979 505.1 58.196 496.864 54.702 L 508.323 41.864 L 477.731 35.499 Z " fill="rgb(253,253,225)" mask="url(#_mask_XqR4XD6oSA4B6p44KwKkO34IaKRosAFt)" vector-effect="non-scaling-stroke" stroke-width="2" stroke="rgb(0,0,0)" stroke-linejoin="miter" stroke-linecap="square" stroke-miterlimit="3"></path>
    <path d=" M 228.514 241.701 C 248.869 235.18 269.813 233.521 286.901 237.076 C 323.174 244.624 332.578 273.148 307.906 300.788 C 283.233 328.43 233.827 344.718 197.553 337.171 C 161.279 329.624 151.874 301.099 176.547 273.458 C 188.621 259.931 207.367 248.476 228.514 241.701 Z M 186.511 205.596 L 191.979 222.182 C 176.312 229.461 162.018 238.269 149.872 248.128 L 125.759 243.11 L 123.172 246.01 L 116.508 241.364 L 88.973 255.238 L 95.975 276.476 L 120.199 281.515 C 113.664 292.537 110.178 303.595 109.929 314.093 L 81.213 323.56 L 91.114 353.593 L 119.841 344.122 C 126.247 352.443 135.597 359.29 147.385 364.292 L 145.878 365.98 L 123.982 361.426 L 130.984 382.664 L 174.772 391.774 L 191.249 373.316 C 206.844 374.044 223.548 372.655 240.457 369.223 L 245.923 385.803 L 297.943 368.652 L 292.475 352.066 C 308.143 344.788 322.436 335.981 334.581 326.122 L 358.695 331.137 L 388.478 297.772 L 381.476 276.533 L 366.584 293.216 L 364.254 292.731 C 370.789 281.712 374.275 270.653 374.524 260.156 L 403.241 250.689 L 393.34 220.656 L 364.612 230.127 C 358.207 221.807 348.857 214.959 337.068 209.956 L 353.469 191.583 L 346.467 170.345 L 328.664 186.422 L 309.682 182.473 L 293.204 200.931 C 277.608 200.203 260.905 201.593 243.997 205.026 L 238.531 188.445 L 186.511 205.596 Z " fill="rgb(11,11,11)"></path>
    <mask id="_mask_IRHd2tlDcZo0FOpzXdWKt0HrgkoTfReN">
      <path d=" M 279.899 215.839 C 316.173 223.386 325.578 251.911 300.905 279.552 C 276.233 307.193 226.825 323.482 190.551 315.934 C 154.277 308.387 144.873 279.861 169.546 252.221 C 194.218 224.581 243.626 208.292 279.899 215.839 L 279.899 215.839 Z M 302.68 161.236 L 286.204 179.694 C 270.608 178.966 253.903 180.356 236.995 183.787 L 231.529 167.208 L 179.509 184.358 L 184.977 200.944 C 169.31 208.225 155.015 217.032 142.869 226.89 L 118.757 221.874 L 88.975 255.239 L 113.198 260.278 C 106.664 271.3 103.177 282.358 102.927 292.854 L 74.211 302.322 L 84.113 332.356 L 112.84 322.885 C 119.245 331.205 128.596 338.051 140.384 343.053 L 123.984 361.426 L 167.77 370.538 L 184.246 352.078 C 199.843 352.808 216.547 351.419 233.455 347.986 L 238.921 364.565 L 290.941 347.415 L 285.473 330.829 C 301.14 323.549 315.434 314.742 327.58 304.883 L 351.693 309.9 L 381.475 276.534 L 357.252 271.495 C 363.787 260.474 367.274 249.416 367.523 238.919 L 396.239 229.451 L 386.337 199.417 L 357.61 208.888 C 351.206 200.569 341.855 193.723 330.066 188.721 L 346.466 170.347 L 302.68 161.236 Z " fill="white" stroke="none"></path>
    </mask>
    <path d=" M 279.899 215.839 C 316.173 223.386 325.578 251.911 300.905 279.552 C 276.233 307.193 226.825 323.482 190.551 315.934 C 154.277 308.387 144.873 279.861 169.546 252.221 C 194.218 224.581 243.626 208.292 279.899 215.839 L 279.899 215.839 Z M 302.68 161.236 L 286.204 179.694 C 270.608 178.966 253.903 180.356 236.995 183.787 L 231.529 167.208 L 179.509 184.358 L 184.977 200.944 C 169.31 208.225 155.015 217.032 142.869 226.89 L 118.757 221.874 L 88.975 255.239 L 113.198 260.278 C 106.664 271.3 103.177 282.358 102.927 292.854 L 74.211 302.322 L 84.113 332.356 L 112.84 322.885 C 119.245 331.205 128.596 338.051 140.384 343.053 L 123.984 361.426 L 167.77 370.538 L 184.246 352.078 C 199.843 352.808 216.547 351.419 233.455 347.986 L 238.921 364.565 L 290.941 347.415 L 285.473 330.829 C 301.14 323.549 315.434 314.742 327.58 304.883 L 351.693 309.9 L 381.475 276.534 L 357.252 271.495 C 363.787 260.474 367.274 249.416 367.523 238.919 L 396.239 229.451 L 386.337 199.417 L 357.61 208.888 C 351.206 200.569 341.855 193.723 330.066 188.721 L 346.466 170.347 L 302.68 161.236 Z " fill="rgb(253,253,225)"></path>
    <path d=" M 279.899 215.839 C 316.173 223.386 325.578 251.911 300.905 279.552 C 276.233 307.193 226.825 323.482 190.551 315.934 C 154.277 308.387 144.873 279.861 169.546 252.221 C 194.218 224.581 243.626 208.292 279.899 215.839 L 279.899 215.839 Z M 302.68 161.236 L 286.204 179.694 C 270.608 178.966 253.903 180.356 236.995 183.787 L 231.529 167.208 L 179.509 184.358 L 184.977 200.944 C 169.31 208.225 155.015 217.032 142.869 226.89 L 118.757 221.874 L 88.975 255.239 L 113.198 260.278 C 106.664 271.3 103.177 282.358 102.927 292.854 L 74.211 302.322 L 84.113 332.356 L 112.84 322.885 C 119.245 331.205 128.596 338.051 140.384 343.053 L 123.984 361.426 L 167.77 370.538 L 184.246 352.078 C 199.843 352.808 216.547 351.419 233.455 347.986 L 238.921 364.565 L 290.941 347.415 L 285.473 330.829 C 301.14 323.549 315.434 314.742 327.58 304.883 L 351.693 309.9 L 381.475 276.534 L 357.252 271.495 C 363.787 260.474 367.274 249.416 367.523 238.919 L 396.239 229.451 L 386.337 199.417 L 357.61 208.888 C 351.206 200.569 341.855 193.723 330.066 188.721 L 346.466 170.347 L 302.68 161.236 Z " fill="rgb(253,253,225)" mask="url(#_mask_IRHd2tlDcZo0FOpzXdWKt0HrgkoTfReN)" vector-effect="non-scaling-stroke" stroke-width="2" stroke="rgb(0,0,0)" stroke-linejoin="miter" stroke-linecap="square" stroke-miterlimit="3"></path>
  </g>
</svg>
